<svg xmlns="http://www.w3.org/2000/svg" xmlns:xlink="http://www.w3.org/1999/xlink" version="1.1" x="0px" y="0px" viewBox="0 0 90 112.5" enable-background="new 0 0 90 90" xml:space="preserve"><path d="M87.948,16.287c-0.272-0.272-0.714-0.272-0.986,0L70.498,32.755c-0.244-0.155-0.54-0.329-0.874-0.521  c0.108-0.099,0.232-0.174,0.339-0.277c1.912-1.917,3.037-4.318,3.702-6.672l13.456-13.452c0.272-0.272,0.272-0.714,0-0.987  s-0.714-0.272-0.986,0l-11.91,11.906c0.559-3.463,0.268-6.324,0.241-6.541c-0.007-0.07-0.037-0.127-0.054-0.188l9.475-9.477  c0.272-0.272,0.272-0.714,0-0.987s-0.714-0.272-0.986,0l-9.475,9.477c-0.066-0.019-0.122-0.047-0.19-0.057  c-0.003,0-2.958-0.324-6.56,0.263l11.928-11.93c0.272-0.272,0.272-0.714,0-0.986s-0.715-0.272-0.987,0L64.142,15.803  c-2.354,0.667-4.755,1.786-6.651,3.679c-0.105,0.108-0.186,0.216-0.281,0.32c-0.186-0.32-0.359-0.616-0.513-0.855L73.16,2.482  c0.272-0.272,0.272-0.714,0-0.986c-0.272-0.273-0.715-0.273-0.987,0L55.849,17.823c-0.397-0.324-0.944-0.423-1.429-0.211  c-0.301,0.131-6.653,2.974-9.317,8.396c-1.602,0.912-5.638,3.519-7.699,7.569c-0.091,0.028-0.183,0.047-0.269,0.094  c-0.257,0.146-5.336,3.045-7.65,7.856c-0.336-0.061-0.691-0.014-0.995,0.179c-0.243,0.155-5.034,3.232-7.066,8.039  c-0.476-0.323-1.098-0.338-1.576,0c-0.231,0.165-4.822,3.486-6.537,8.359c-0.202-0.179-0.333-0.287-0.368-0.315  c-0.51-0.403-1.231-0.403-1.741,0C10.94,58,4.785,62.985,4.783,69.385c0,4.618,3.083,7.23,5.096,8.457  c-0.293,0.333-0.761,0.846-1.538,1.668c-3.136,3.316-3.311,6.901-3.317,7.052c-0.031,0.767,0.563,1.405,1.33,1.442  c0.022,0,0.043,0,0.065,0c0.737,0,1.354-0.582,1.393-1.324c0.006-0.108,0.172-2.73,2.555-5.253c0.583-0.616,1.051-1.114,1.435-1.541  c1.303,2.001,3.881,4.773,8.26,4.778c6.398,0,11.383-6.16,11.592-6.418c0.405-0.513,0.405-1.236-0.001-1.743  c-0.027-0.033-0.134-0.165-0.31-0.367c4.873-1.715,8.192-6.301,8.357-6.535c0.34-0.479,0.322-1.104,0.002-1.579  c4.803-2.029,7.886-6.822,8.04-7.066c0.193-0.306,0.24-0.657,0.179-0.996c4.812-2.312,7.71-7.391,7.856-7.649  c0.047-0.084,0.065-0.178,0.094-0.268c4.05-2.062,6.66-6.104,7.571-7.701c5.42-2.664,8.258-9.016,8.39-9.317  c0.211-0.484,0.114-1.029-0.207-1.429l16.322-16.322C88.221,17.001,88.221,16.559,87.948,16.287z M59.464,21.455  c0.277-0.277,0.592-0.498,0.896-0.733c0.704-0.555,1.449-1.039,2.248-1.41c3.192-1.485,6.848-1.663,8.854-1.63  c0.094,0,0.216,0,0.3,0c0.005,0.089,0.003,0.207,0.005,0.301c0.038,1.983-0.131,5.647-1.628,8.856  c-0.373,0.799-0.857,1.542-1.412,2.246c-0.239,0.305-0.46,0.62-0.737,0.897c-0.348,0.348-0.724,0.634-1.106,0.912  c-1.887-0.79-4.172-1.466-6.585-1.466c-0.101,0-0.195,0.019-0.296,0.019c0.061-2.514-0.618-4.929-1.434-6.883  C58.837,22.188,59.109,21.812,59.464,21.455z M54.495,20.699c0.261,0.432,0.583,1.01,0.907,1.663  c0.625,1.259,1.264,2.852,1.593,4.576c-0.083,1.071-0.008,2.072,0.147,2.918c0.012,0.061,0.017,0.127,0.028,0.183  c-0.045,0.484-0.115,0.963-0.242,1.438c-0.188,0.705-0.477,1.297-0.803,1.842c-0.13,0.221-0.261,0.437-0.407,0.629  c-0.65,0.869-1.431,1.522-2.229,2.006c-0.576,0.353-1.149,0.611-1.681,0.813c-0.035-0.949-0.176-1.87-0.387-2.758  c-0.807-3.383-2.608-6.183-3.473-7.376C49.687,23.654,52.849,21.605,54.495,20.699z M43.981,30.138  c0.765-0.597,1.481-1.085,2.024-1.419c0.232,0.348,0.513,0.804,0.802,1.302c0.904,1.569,1.916,3.782,2.165,6.15  c0.068,0.639,0.057,1.283-0.007,1.931c-0.03,0.315-0.047,0.635-0.112,0.945c-0.055,0.244-0.148,0.446-0.221,0.667  c-0.329,1.029-0.832,1.87-1.44,2.546c-0.214,0.24-0.433,0.465-0.665,0.667c-0.958,0.832-2.006,1.362-2.873,1.687  c-0.042-0.714-0.155-1.414-0.308-2.091c-0.719-3.214-2.474-5.953-3.571-7.419C40.762,33.018,42.46,31.327,43.981,30.138z   M37.433,65.851c-1.724-1.391-4.341-3.077-7.361-3.641c1.73-0.954,3.853-2.632,4.871-5.408c0.002,0,0.006,0,0.009,0  c0.099-0.014,0.182-0.052,0.285-0.062c3.95-0.455,7.78,2.289,9.46,3.68c-0.138,0.178-0.308,0.385-0.481,0.597  C42.863,62.642,40.429,65.053,37.433,65.851z M36.192,37.735c0.489-0.395,0.95-0.742,1.32-0.996c0.42,0.559,0.968,1.372,1.499,2.321  c0.648,1.156,1.251,2.533,1.59,4.018c0.24,1.047,0.334,2.138,0.198,3.237c-0.012,0.104-0.005,0.207-0.021,0.311  c-0.028,0.174-0.091,0.314-0.13,0.475c-0.781,3.284-3.548,4.797-5.153,5.398c-0.04-0.517-0.102-1.029-0.205-1.522  c-0.64-3.115-2.38-5.798-3.646-7.428C32.57,41.043,34.581,39.037,36.192,37.735z M28.418,45.244  c0.215-0.184,0.425-0.353,0.607-0.494c1.392,1.683,4.118,5.53,3.677,9.463c-0.012,0.104-0.048,0.188-0.063,0.291  c-0.103,0.658-0.292,1.25-0.541,1.781c-0.833,1.795-2.312,2.922-3.518,3.566c-0.467,0.244-0.881,0.418-1.202,0.54  c-0.032-0.343-0.075-0.687-0.137-1.02c-0.561-3.017-2.253-5.634-3.647-7.358C24.395,49.021,26.792,46.597,28.418,45.244z   M20.55,52.757c0.012,0.014,0.027,0.032,0.04,0.047c1.467,1.593,4.265,5.154,4.046,8.992c-0.002,0.047-0.019,0.09-0.021,0.137  c-0.021,0.268-0.075,0.512-0.124,0.761c-0.647,3.331-3.595,4.943-4.812,5.465c-0.126-0.07-0.282-0.169-0.441-0.272  c-0.445-3.017-2.125-5.629-3.647-7.442C16.184,56.962,19.046,54.058,20.55,52.757z M12.073,75.887  c-0.186-0.089-0.422-0.221-0.676-0.376c-1.479-0.883-3.823-2.805-3.823-6.126c0.001-3.773,2.978-7.146,4.499-8.627  c0.183,0.179,0.39,0.39,0.607,0.62l0,0c0.112,0.117,0.233,0.259,0.35,0.39c0.104,0.113,0.205,0.222,0.312,0.349  c0.095,0.112,0.192,0.234,0.29,0.352c0.141,0.174,0.283,0.348,0.424,0.536c0.094,0.127,0.186,0.258,0.279,0.385  c0.142,0.202,0.283,0.404,0.419,0.616c0.092,0.141,0.179,0.286,0.266,0.432c0.131,0.221,0.256,0.442,0.376,0.672  c0.08,0.155,0.16,0.311,0.235,0.466c0.113,0.239,0.214,0.488,0.31,0.737c0.061,0.16,0.125,0.314,0.18,0.479  c0.092,0.277,0.161,0.559,0.227,0.846c0.033,0.141,0.077,0.281,0.101,0.428c0.077,0.432,0.125,0.873,0.125,1.32  c0,0.517-0.063,0.996-0.165,1.442C15.743,73.772,13.174,75.342,12.073,75.887z M20.062,81.873c-3.322,0-5.244-2.35-6.129-3.825  c1.417-0.808,3.561-2.4,4.683-5.013c0.45-0.099,0.927-0.165,1.444-0.165c0.447,0,0.888,0.052,1.321,0.127  c0.145,0.023,0.283,0.071,0.426,0.104c0.287,0.066,0.573,0.137,0.853,0.226c0.157,0.057,0.31,0.117,0.464,0.179  c0.255,0.099,0.509,0.202,0.753,0.314c0.153,0.075,0.301,0.15,0.449,0.226c0.237,0.127,0.471,0.254,0.698,0.391  c0.136,0.084,0.272,0.164,0.405,0.253c0.222,0.142,0.438,0.292,0.646,0.438c0.121,0.089,0.243,0.174,0.358,0.258  c0.2,0.155,0.386,0.306,0.571,0.456c0.107,0.085,0.221,0.174,0.322,0.264c0.148,0.127,0.277,0.244,0.41,0.366  c0.114,0.104,0.237,0.207,0.34,0.306c0.001,0,0.001,0,0.001,0c0.226,0.216,0.432,0.418,0.607,0.597  C27.209,78.894,23.837,81.873,20.062,81.873z M36.69,68.9c-1.297,1.508-4.193,4.369-7.689,4.957  c-1.773-1.489-4.313-3.129-7.248-3.618c1.6-0.854,3.869-2.495,4.997-5.285c0.25-0.052,0.497-0.104,0.767-0.127  c0.048,0,0.086-0.02,0.134-0.02l0.417-0.014c0.483,0,0.96,0.052,1.429,0.136c2.114,0.376,4.048,1.504,5.492,2.57  c0.665,0.493,1.23,0.968,1.652,1.358C36.655,68.867,36.676,68.887,36.69,68.9z M45.901,57.803c-1.63-1.264-4.315-3.007-7.426-3.651  c1.616-0.935,3.381-2.429,4.386-4.769c0.101-0.235,0.183-0.488,0.268-0.737c1.121-0.142,2.229-0.038,3.296,0.211  c1.468,0.343,2.828,0.944,3.97,1.588c0.947,0.531,1.755,1.076,2.314,1.494c-0.242,0.353-0.573,0.794-0.944,1.26  C50.469,54.819,48.443,56.867,45.901,57.803z M54.34,49.674c-1.473-1.095-4.219-2.847-7.423-3.57  c1.444-0.888,2.908-2.204,3.861-4.149c0.222-0.446,0.399-0.944,0.56-1.461c0.291-0.028,0.568-0.089,0.869-0.089  c0.361,0,0.724,0.033,1.085,0.071c2.331,0.253,4.527,1.245,6.09,2.143c0.523,0.296,0.984,0.587,1.344,0.827  c-0.331,0.541-0.813,1.254-1.407,2.011C58.127,46.978,56.434,48.688,54.34,49.674z M62.812,41.499  c-1.18-0.855-3.986-2.646-7.4-3.458c1.118-0.747,2.199-1.762,3.04-3.129c0.47-0.761,0.867-1.626,1.142-2.626  c0.005-0.005,0.008-0.014,0.01-0.023c0.23-0.014,0.458-0.042,0.695-0.042c0.71,0,1.412,0.089,2.101,0.216  c1.738,0.314,3.356,0.949,4.633,1.579c0.681,0.338,1.271,0.667,1.717,0.939C67.849,36.598,65.802,39.76,62.812,41.499z"/><text x="0" y="105" fill="#000000" font-size="5px" font-weight="bold" font-family="'Helvetica Neue', Helvetica, Arial-Unicode, Arial, Sans-serif">Created by Christoffer Skogsmo</text><text x="0" y="110" fill="#000000" font-size="5px" font-weight="bold" font-family="'Helvetica Neue', Helvetica, Arial-Unicode, Arial, Sans-serif">from the Noun Project</text></svg>